<?xml version="1.0" standalone="no"?>
<!DOCTYPE svg PUBLIC "-//W3C//DTD SVG 20010904//EN"
 "http://www.w3.org/TR/2001/REC-SVG-20010904/DTD/svg10.dtd">
<svg version="1.0" xmlns="http://www.w3.org/2000/svg"
 width="577.000000pt" height="433.000000pt" viewBox="0 0 577.000000 433.000000"
 preserveAspectRatio="xMidYMid meet">

<g transform="translate(0.000000,433.000000) scale(0.100000,-0.100000)"
fill="#000000" stroke="none">
<path d="M1925 3930 c-140 -8 -268 -34 -350 -71 -43 -19 -129 -72 -133 -81 -2
-4 -9 -8 -15 -8 -20 0 -152 -146 -190 -209 -114 -192 -127 -331 -127 -1366 0
-1007 12 -1168 97 -1355 78 -170 265 -332 442 -384 164 -48 175 -48 1221 -47
825 2 995 4 1048 16 35 9 68 13 73 9 5 -3 9 -2 9 3 0 7 17 11 72 16 9 1 15 3
13 6 -3 2 0 10 6 17 7 8 19 10 39 4 19 -6 32 -5 36 2 5 7 2 8 -6 3 -9 -5 -11
-4 -6 3 4 7 18 12 31 12 27 0 56 35 48 59 -4 13 -3 14 5 1 6 -8 9 -17 6 -21
-2 -4 0 -11 6 -14 6 -4 9 -1 8 7 -2 7 3 12 10 10 8 -1 11 2 7 8 -3 6 -11 8
-16 5 -12 -8 -11 -3 5 36 14 34 41 46 63 28 7 -6 17 -8 23 -4 5 3 10 1 10 -4
0 -6 -6 -11 -14 -11 -8 0 -18 -4 -21 -10 -4 -6 2 -7 17 -1 13 5 22 16 21 26 0
10 4 14 14 11 8 -3 11 -1 8 4 -3 6 -15 10 -25 10 -14 0 -18 7 -18 30 1 16 5
27 9 24 13 -8 22 17 10 29 -16 16 -14 23 13 35 22 10 26 8 32 -10 4 -13 1 -24
-7 -29 -11 -7 -11 -9 -1 -9 8 0 10 -5 6 -12 -6 -10 -5 -10 8 -1 8 7 19 9 24 5
4 -4 2 1 -5 10 -7 10 -11 25 -7 33 3 9 2 13 -4 10 -6 -3 -10 -2 -10 3 0 6 11
13 25 16 17 4 22 11 18 22 -5 14 -3 14 15 -2 12 -9 18 -22 15 -28 -4 -6 3 -3
15 8 12 10 19 23 16 27 -3 5 -1 9 5 9 6 0 13 11 17 25 3 13 12 29 19 35 8 6
11 18 8 26 -3 8 0 14 7 14 7 0 10 6 7 14 -3 8 -1 16 5 18 6 2 11 23 11 47 0
27 3 38 8 29 7 -10 9 -9 9 4 0 9 -4 20 -10 23 -5 3 -10 12 -9 18 0 9 2 9 6 0
8 -20 18 -15 20 10 19 192 23 462 20 1262 -4 979 -4 966 -58 1110 -40 107
-100 196 -188 278 -71 67 -189 138 -263 158 -198 54 -138 51 -1148 54 -514 1
-989 -1 -1055 -5z m2001 -915 c111 -94 124 -111 124 -160 0 -25 -7 -50 -17
-62 -10 -12 -31 -37 -48 -58 -16 -20 -38 -46 -48 -58 -11 -12 -35 -42 -55 -66
-21 -24 -45 -53 -55 -65 -11 -11 -33 -38 -50 -60 -18 -21 -41 -49 -52 -62 -11
-12 -27 -31 -35 -41 -28 -34 -114 -138 -120 -143 -3 -3 -25 -30 -50 -60 -24
-30 -51 -62 -60 -71 -8 -9 -31 -36 -50 -60 -19 -24 -47 -56 -62 -72 -16 -16
-28 -32 -28 -37 0 -5 -4 -10 -8 -12 -4 -1 -39 -41 -77 -88 -38 -47 -74 -89
-80 -95 -7 -5 -29 -32 -50 -60 -22 -27 -44 -54 -50 -60 -6 -5 -42 -48 -80 -95
-38 -47 -72 -87 -76 -90 -3 -3 -25 -30 -50 -60 -80 -99 -94 -112 -127 -126
-41 -18 -80 -3 -137 52 -23 21 -83 77 -135 124 -51 47 -110 102 -131 122 -21
21 -39 38 -42 38 -2 0 -26 21 -53 48 -89 86 -225 212 -229 212 -2 0 -24 19
-47 43 -24 23 -85 81 -136 128 -91 86 -92 87 -92 134 0 44 5 53 66 124 137
158 142 158 386 9 101 -61 206 -126 233 -143 28 -18 64 -40 80 -49 33 -18 39
-22 136 -83 l66 -43 99 102 c55 56 134 137 177 180 42 43 77 80 77 82 0 2 42
46 93 97 50 52 166 172 257 268 221 233 353 367 371 374 8 4 33 5 55 3 33 -3
55 -15 110 -61z m640 -2040 c-3 -8 0 -15 7 -15 7 0 3 -6 -8 -12 -11 -6 -23
-16 -27 -22 -5 -7 -8 -7 -8 2 0 12 30 61 39 62 2 0 1 -7 -3 -15z m-21 -89 c13
5 16 4 11 -4 -11 -19 -46 -14 -46 6 0 12 2 14 8 4 5 -8 16 -10 27 -6z m-44
-23 c0 -16 3 -22 6 -15 5 13 23 17 23 5 -1 -18 -18 -33 -32 -28 -9 4 -15 18
-14 35 1 38 16 39 17 3z m5 -70 c-10 -11 -19 -7 -22 10 -2 15 0 16 12 6 8 -6
12 -14 10 -16z m-251 -153 c-3 -5 -13 -10 -21 -10 -8 0 -12 5 -9 10 3 6 13 10
21 10 8 0 12 -4 9 -10z m85 -5 c7 -9 8 -15 2 -15 -5 0 -12 7 -16 15 -3 8 -4
15 -2 15 2 0 9 -7 16 -15z m-135 -44 c-3 -6 -11 -11 -16 -11 -5 0 -4 6 3 14
14 16 24 13 13 -3z m-24 -54 c-16 -16 -25 -1 -10 16 8 8 16 11 18 5 2 -5 -2
-15 -8 -21z m29 -12 c-7 -8 -22 -15 -34 -14 -20 0 -20 1 2 10 13 5 27 19 30
32 5 18 7 19 10 4 2 -10 -2 -24 -8 -32z m-175 -58 c14 -3 10 -5 -11 -6 -21 -1
-31 4 -31 14 0 9 4 11 11 6 6 -5 20 -11 31 -14z"/>
<path d="M4448 717 c7 -8 8 -18 4 -22 -4 -5 -1 -5 6 -1 17 10 15 23 -4 30 -13
5 -14 4 -6 -7z"/>
<path d="M4411 667 c-13 -21 -12 -21 5 -5 10 10 16 20 13 22 -3 3 -11 -5 -18
-17z"/>
</g>
</svg>
